<?xml version="1.0" standalone="no"?>
<!DOCTYPE svg PUBLIC "-//W3C//DTD SVG 20010904//EN"
 "http://www.w3.org/TR/2001/REC-SVG-20010904/DTD/svg10.dtd">
<svg version="1.0" xmlns="http://www.w3.org/2000/svg"
 width="970.000000pt" height="970.000000pt" viewBox="0 0 970.000000 970.000000"
 preserveAspectRatio="xMidYMid meet">
<metadata>
Created by potrace 1.11, written by Peter Selinger 2001-2013
</metadata>
<g transform="translate(0.000000,970.000000) scale(0.100000,-0.100000)"
fill="#000000" stroke="none">
<path d="M2318 9695 c-2 -1 -32 -5 -68 -8 -209 -20 -409 -65 -619 -141 -76
-27 -254 -107 -311 -139 -59 -34 -204 -121 -215 -129 -5 -4 -55 -41 -110 -82
-365 -271 -652 -648 -825 -1086 -40 -101 -102 -308 -119 -400 -6 -30 -12 -64
-15 -75 -30 -142 -31 -219 -31 -2770 0 -2268 3 -2636 19 -2722 3 -11 8 -43 12
-70 9 -67 10 -68 34 -163 12 -47 23 -94 25 -104 16 -74 90 -266 152 -396 302
-629 876 -1117 1539 -1310 148 -43 247 -63 449 -90 83 -11 5143 -11 5230 0 39
5 89 12 113 15 154 20 366 76 537 142 97 38 313 143 356 174 15 10 32 19 38
19 6 0 11 5 11 10 0 6 7 10 15 10 8 0 15 5 15 10 0 6 4 10 10 10 5 0 24 10 42
23 489 335 842 819 1002 1374 29 104 72 310 83 409 10 88 11 5185 0 5281 -4
40 -10 78 -12 85 -3 7 -7 31 -9 53 -5 49 -31 165 -58 260 -228 804 -854 1449
-1648 1699 -108 33 -298 77 -400 91 -25 3 -58 9 -75 11 -29 6 -5161 14 -5167
9z"/>
</g>
</svg>
